HIERARCHY
ROOT hip
{
	OFFSET 0.000000 0.000000 0.000000 
	CHANNELS 6 Xposition Yposition Zposition Xrotation Zrotation Yrotation
	JOINT abdomen
	{
		OFFSET 0.000000 3.402643 0.000000 
		CHANNELS 3 Xrotation Zrotation Yrotation
		JOINT chest
		{
			OFFSET 0.000000 8.438565 -0.680529 
			CHANNELS 3 Xrotation Zrotation Yrotation
			JOINT neck
			{
				OFFSET 0.000000 10.207942 -0.272212 
				CHANNELS 3 Xrotation Zrotation Yrotation
				JOINT head
				{
					OFFSET 0.000000 3.130431 0.000000 
					CHANNELS 3 Xrotation Zrotation Yrotation
					End Site
					{
						OFFSET 0.000000 3.130435 0.000000 
					}
				}
			}
			JOINT lCollar
			{
				OFFSET 3.470700 6.669187 -0.816635 
				CHANNELS 3 Yrotation Zrotation Xrotation
				JOINT lShldr
				{
					OFFSET 3.198488 0.000000 0.000000 
					CHANNELS 3 Zrotation Yrotation Xrotation
					JOINT lForeArm
					{
						OFFSET 10.139888 0.000000 0.000000 
						CHANNELS 3 Yrotation Zrotation Xrotation
						JOINT lHand
						{
							OFFSET 8.370511 0.000000 0.000000 
							CHANNELS 3 Zrotation Yrotation Xrotation
							End Site
							{
								OFFSET 4.083176 0.000000 0.000000 
							}
						}
					}
				}
			}
			JOINT rCollar
			{
				OFFSET -3.470700 6.669187 -0.816635 
				CHANNELS 3 Yrotation Zrotation Xrotation
				JOINT rShldr
				{
					OFFSET -3.198488 0.000000 0.000000 
					CHANNELS 3 Zrotation Yrotation Xrotation
					JOINT rForeArm
					{
						OFFSET -10.139888 0.000000 0.000000 
						CHANNELS 3 Yrotation Zrotation Xrotation
						JOINT rHand
						{
							OFFSET -8.370511 0.000000 0.000000 
							CHANNELS 3 Zrotation Yrotation Xrotation
							End Site
							{
								OFFSET -4.083176 0.000000 0.000000 
							}
						}
					}
				}
			}
		}
	}
	JOINT lThigh
	{
		OFFSET 5.308129 -1.633274 1.361059 
		CHANNELS 3 Xrotation Zrotation Yrotation
		JOINT lShin
		{
			OFFSET -2.041588 -20.007561 0.000000 
			CHANNELS 3 Xrotation Zrotation Yrotation
			JOINT lFoot
			{
				OFFSET 0.000000 -19.190928 -1.224953 
				CHANNELS 3 Xrotation Yrotation Zrotation
				End Site
				{
					OFFSET 0.000000 -2.449906 4.627600 
				}
			}
		}
	}
	JOINT rThigh
	{
		OFFSET -5.308129 -1.633274 1.361059 
		CHANNELS 3 Xrotation Zrotation Yrotation
		JOINT rShin
		{
			OFFSET 2.041588 -20.007561 0.000000 
			CHANNELS 3 Xrotation Zrotation Yrotation
			JOINT rFoot
			{
				OFFSET 0.000000 -19.190928 -1.224953 
				CHANNELS 3 Xrotation Yrotation Zrotation
				End Site
				{
					OFFSET 0.000000 -2.449906 4.627600 
				}
			}
		}
	}
}
MOTION
Frames: 18
Frame Time: 0.016667
-2.619824 51.698921 127.010368 -3.334480 -4.306737 -22.734121 33.102425 10.002238 -1.250893 6.669127 3.143201 -7.009167 3.040916 7.941346 0.077892 3.284354 -13.303020 38.567760 -24.942013 -12.198689 -0.646787 -69.763748 -2.874040 -13.269136 -51.365631 1.990496 -2.836435 -11.765475 -30.000000 -45.000000 10.907997 11.235506 -0.595640 57.283218 7.549828 -2.682011 82.142403 5.000000 5.005082 12.201196 -21.382830 -5.700631 -18.124941 16.191330 1.762901 47.012611 -3.486586 -3.989530 -14.521057 4.276593 -6.242994 1.859951 -1.693988 5.622999 20.384821 7.579044 3.302878 -17.278601 -14.624003 -1.752698 
-2.646049 51.685516 128.011093 -3.119543 -4.626669 -22.872049 32.864155 10.307958 -1.207692 6.644389 3.153381 -6.881824 3.229090 7.905612 0.102864 3.375150 -13.267789 38.633198 -24.904774 -12.354727 -0.654847 -69.828392 -2.691750 -13.621728 -51.406113 1.939031 -2.791348 -11.868217 -30.000000 -45.000000 11.034328 11.176970 -0.592612 57.248714 7.567991 -2.525521 81.974213 5.000000 5.108844 12.335055 -21.365913 -5.721943 -18.861147 17.201548 0.904907 42.157291 -3.973451 -3.842376 -14.443345 4.359411 -6.332330 3.446843 -1.717988 5.726301 19.367256 7.396754 3.031276 -17.690720 -14.749518 -1.451193 
-2.662969 51.647011 129.021469 -2.840523 -5.016764 -23.043291 32.603222 10.693040 -1.089653 6.619146 3.163509 -6.784301 3.425605 7.839468 0.122655 3.409382 -13.231386 38.747631 -24.848026 -12.510767 -0.662905 -69.854935 -2.503829 -13.967206 -51.457359 1.879582 -2.767429 -11.950966 -30.000000 -45.000000 11.218948 11.089171 -0.588070 57.246368 7.571166 -2.354890 81.799500 5.000000 5.237518 12.507240 -21.301622 -5.772936 -19.306871 18.271664 0.180387 36.854439 -4.408289 -3.539708 -14.263608 4.284781 -6.440509 5.068372 -1.669793 5.789065 18.226435 7.171881 2.782935 -18.013361 -14.801654 -1.071912 
-2.665469 51.567684 130.059998 -2.527253 -5.449539 -23.246689 32.338799 11.117309 -0.921273 6.602381 3.183325 -6.695989 3.601188 7.752566 0.135799 3.447765 -13.185608 38.871433 -24.791187 -12.657056 -0.670455 -69.902000 -2.317549 -14.321552 -51.499577 1.789052 -2.720167 -11.999029 -30.000000 -45.000000 11.393407 10.962365 -0.581508 57.272587 7.583731 -2.186845 81.625435 5.000000 5.362296 12.685079 -21.254112 -5.839882 -19.707073 19.355480 -0.481392 31.533600 -4.748701 -3.121910 -14.145736 4.279078 -6.500482 6.695934 -1.599712 5.876512 17.094603 6.974420 2.524572 -18.331402 -14.837076 -0.682842 
-2.654774 51.443298 131.131058 -2.040814 -6.116058 -23.610281 32.008064 11.799555 -0.491570 6.603785 3.193232 -6.627688 3.726453 7.596630 0.149594 3.481254 -13.073847 39.014458 -24.733538 -12.735080 -0.674480 -70.047096 -2.152552 -14.712034 -51.531273 1.653567 -2.581011 -11.972030 -30.000000 -45.000000 11.516976 10.630772 -0.564345 57.514641 7.606802 -2.002513 81.433136 5.000000 5.484097 12.798133 -21.264347 -5.877357 -19.799730 20.600630 -0.604320 26.260839 -4.853304 -2.624652 -14.148973 4.250191 -6.439050 8.337610 -1.366233 6.087190 15.832623 6.801133 2.260886 -18.513725 -14.941422 -0.233206 
-2.629454 51.281998 132.231155 -1.507339 -6.830216 -24.019379 31.672171 12.540217 -0.003005 6.615730 3.193403 -6.569156 3.840654 7.429593 0.155263 3.507377 -12.951263 39.174141 -24.685423 -12.793599 -0.677500 -70.211594 -1.994319 -15.102645 -51.553295 1.502217 -2.430162 -11.922496 -30.000000 -45.000000 11.620744 10.260172 -0.543402 57.785305 7.637687 -1.819221 81.238464 5.000000 5.603516 12.892466 -21.295570 -5.911716 -19.841022 21.891756 -0.641326 21.002661 -4.873000 -2.083411 -14.169298 4.142468 -6.407923 9.989601 -1.112501 6.289058 14.567361 6.614918 2.066951 -18.707554 -14.973087 0.244785 
-2.582688 51.088440 133.365707 -0.952591 -7.624406 -24.508770 31.365574 13.355764 0.550523 6.638740 3.183878 -6.481342 3.954897 7.262554 0.159681 3.481581 -12.811570 39.301590 -24.654110 -12.797679 -0.668847 -70.422478 -1.848229 -15.470983 -51.566498 1.326699 -2.290041 -11.818580 -30.000000 -45.000000 11.694263 9.772548 -0.518183 58.192051 7.677459 -1.645510 80.994087 5.000000 5.743254 13.012272 -21.306887 -5.940483 -19.892113 23.114693 -0.446740 16.578789 -4.813941 -1.644394 -14.318340 4.240885 -6.078477 11.632335 -0.886783 6.542840 13.366376 6.507545 1.843100 -19.062780 -15.051954 0.704998 
-2.517905 50.862297 134.531464 -0.362749 -8.496530 -25.069401 31.103462 14.264081 1.182867 6.683089 3.164694 -6.363721 4.058242 7.103724 0.154303 3.400356 -12.647250 39.392570 -24.653292 -12.729414 -0.665326 -70.697563 -1.729495 -15.820337 -51.560711 1.142006 -2.172885 -11.643765 -30.000000 -45.000000 11.737870 9.187407 -0.486313 58.715019 7.729885 -1.472588 80.694893 5.000000 5.907280 13.136675 -21.300358 -5.960019 -19.890545 24.294561 0.043443 12.951115 -4.665659 -1.317749 -14.642783 4.323363 -5.567254 13.255003 -0.701536 6.815355 12.328396 6.438095 1.718683 -19.521009 -15.057207 1.255760 
-2.429003 50.637005 135.719345 0.234946 -9.360142 -25.640514 30.843801 15.177381 1.809151 6.718358 3.135764 -6.246639 4.171425 6.935235 0.150364 3.317501 -12.481601 39.495438 -24.652477 -12.661151 -0.661804 -70.972527 -1.613874 -16.171076 -51.554237 0.959437 -2.050012 -11.483661 -30.000000 -45.000000 11.770597 8.604255 -0.446598 59.238388 7.774941 -1.307312 80.398521 5.000000 6.075677 13.267796 -21.295074 -5.970697 -19.909657 25.475512 0.520794 9.328624 -4.498683 -1.010789 -14.927037 4.452567 -5.041180 14.900985 -0.546124 7.109854 11.264057 6.392014 1.555808 -20.024298 -15.080697 1.775785 
-2.308468 50.428291 136.928268 0.467179 -9.619803 -25.938366 30.630280 15.547587 1.873424 6.752690 3.096968 -6.187574 4.189660 6.885509 0.148073 3.208055 -12.391247 39.701996 -24.632944 -12.661150 -0.661804 -70.993568 -1.554947 -16.262510 -51.486343 0.926364 -2.028845 -11.325892 -30.000000 -45.000000 11.819314 8.407207 -0.445950 59.480511 7.884540 -1.132669 80.111931 5.000000 6.264451 13.381273 -21.320383 -5.983952 -20.239388 25.599482 0.914954 8.308937 -4.356569 -0.835955 -14.778170 4.883194 -4.418159 16.272072 -1.238166 6.851443 10.886168 6.537249 1.531021 -20.638460 -15.008729 2.375752 
-2.162116 50.236023 138.155029 0.706645 -9.886630 -26.240036 30.418463 15.922651 1.950420 6.787686 3.048427 -6.138285 4.196983 6.834335 0.135029 3.092722 -12.308534 39.910709 -24.615526 -12.666834 -0.670969 -71.015549 -1.492979 -16.363197 -51.418240 0.908615 -2.019782 -11.159857 -30.000000 -45.000000 11.866619 8.212154 -0.435845 59.724186 7.984354 -0.951009 79.840393 5.000000 6.446252 13.488049 -21.344469 -6.002628 -20.570372 25.744678 1.325492 7.288447 -4.187741 -0.702212 -14.617165 5.250422 -3.853696 17.665922 -1.942883 6.604513 10.517773 6.707448 1.509205 -21.254908 -14.946185 2.996098 
-1.990447 50.080841 139.393356 0.740812 -9.863841 -26.406355 30.271338 16.014931 1.754438 6.823836 2.990177 -6.060235 4.177518 6.863301 0.130648 2.930155 -12.279340 40.076630 -24.605047 -12.778172 -0.667841 -70.828987 -1.484041 -16.300604 -51.299789 0.977212 -2.068977 -11.079207 -30.000000 -45.000000 11.847921 8.319433 -0.441404 59.718353 8.163658 -0.693444 79.555069 5.000000 6.612804 13.561900 -21.321877 -6.005682 -20.992056 25.434551 1.504110 7.517125 -4.080747 -0.655425 -13.993114 5.732965 -3.500870 18.796137 -3.016778 6.032862 10.682613 6.921468 1.598602 -21.856726 -14.927301 3.389805 
-1.790137 49.965523 140.645126 0.579299 -9.568737 -26.461643 30.199722 15.838327 1.282545 6.853211 2.902767 -5.932873 4.101961 6.962755 0.136399 2.720937 -12.321806 40.187176 -24.607649 -12.992716 -0.678902 -70.425858 -1.521308 -16.094357 -51.129368 1.189189 -2.208963 -11.072566 -30.000000 -45.000000 11.763309 8.729044 -0.462611 59.457352 8.390751 -0.367578 79.267845 5.000000 6.759157 13.588293 -21.240593 -6.008592 -21.560843 24.646381 1.469992 9.035746 -3.973665 -0.771067 -12.867485 6.360385 -3.441949 19.693220 -4.471014 5.199372 11.395733 7.204279 1.779566 -22.417356 -14.901542 3.626612 
-1.564907 49.883602 141.911316 0.390099 -9.266772 -26.495272 30.164213 15.666169 0.826017 6.882376 2.815338 -5.815288 4.015483 7.060760 0.131390 2.519186 -12.362309 40.307140 -24.610538 -13.226761 -0.693191 -70.018784 -1.580306 -15.865488 -50.949043 1.395661 -2.361324 -11.048089 -30.000000 -45.000000 11.669260 9.158161 -0.484804 59.175079 8.637651 -0.056409 78.980667 5.000000 6.914812 13.595827 -21.155434 -5.984592 -22.117598 23.826485 1.360638 10.742591 -3.883829 -0.888974 -11.715187 7.013715 -3.406643 20.517332 -5.917336 4.290298 12.313339 7.486950 2.014600 -22.847502 -14.930338 3.789673 
-1.312173 49.837254 143.194000 0.119683 -8.932357 -26.499374 30.251257 15.540740 0.359645 6.904045 2.698695 -5.707489 3.848332 7.088279 0.117427 2.361764 -12.434068 40.421932 -24.633518 -13.499815 -0.707287 -69.570305 -1.707557 -15.552314 -50.757397 1.675276 -2.605850 -11.044362 -30.000000 -45.000000 11.546532 9.636042 -0.511121 58.800743 8.883468 0.173564 78.734039 5.000000 7.065256 13.552398 -21.038731 -5.968701 -22.732233 22.810347 0.827765 13.645115 -3.955791 -1.096558 -10.414178 7.713668 -3.619879 20.769632 -7.459801 3.296333 14.148585 7.730363 2.338293 -22.510643 -14.896971 3.627410 
-1.034844 49.826290 144.491760 -0.166418 -8.590018 -26.491827 30.359303 15.411815 -0.117372 6.915187 2.581994 -5.609015 3.653059 7.107590 0.114509 2.207283 -12.512927 40.536789 -24.656824 -13.792370 -0.722371 -69.109184 -1.852786 -15.227541 -50.554684 1.965705 -2.870898 -11.023046 -30.000000 -45.000000 11.424119 10.123673 -0.536352 58.415501 9.140891 0.392394 78.499344 5.000000 7.214484 13.480910 -20.928596 -5.928301 -23.334877 21.763103 0.263188 16.754189 -4.035807 -1.383589 -9.095243 8.317624 -3.948619 20.933311 -9.011306 2.290157 16.143492 7.965742 2.677998 -22.023584 -14.868038 3.404700 
-0.746418 49.837791 145.799179 -0.353740 -8.474364 -26.631943 30.563320 15.557814 -0.262204 6.916329 2.445699 -5.550050 3.491825 6.985929 0.092488 2.036129 -12.621075 40.660225 -24.663050 -14.090602 -0.748924 -68.734116 -2.018705 -14.921080 -50.380245 2.253739 -3.141756 -11.080310 -30.000000 -45.000000 11.319916 10.455265 -0.555260 58.121891 9.348708 0.575203 78.246758 5.000000 7.356062 13.347629 -20.818634 -5.890490 -23.714931 20.952198 -0.220232 19.938713 -4.199322 -1.753914 -8.278597 8.754892 -4.086276 20.613871 -10.301878 1.512080 18.717827 8.031968 3.084422 -20.214336 -14.730326 3.267925 
-0.443780 49.872295 147.119232 -0.435489 -8.592706 -26.928623 30.837891 15.957193 -0.108327 6.907248 2.289799 -5.539900 3.339177 6.746947 0.078431 1.839361 -12.763908 40.799660 -24.647928 -14.412413 -0.765515 -68.424088 -2.214700 -14.618598 -50.225483 2.514400 -3.405221 -11.224015 -30.000000 -45.000000 11.233675 10.621068 -0.563850 57.917137 9.521890 0.712128 77.997726 5.000000 7.482663 13.146375 -20.722862 -5.843410 -23.928087 20.365168 -0.704369 23.206121 -4.505468 -2.130017 -7.906413 8.999248 -3.965033 19.790831 -11.304944 0.974016 21.871847 7.880674 3.591307 -17.162766 -14.653534 3.170387 
